<svg width="24" height="24" viewBox="0 0 24 24" fill="none" xmlns="http://www.w3.org/2000/svg">
<path fill-rule="evenodd" clip-rule="evenodd" d="M12 3.25C12.2613 3.25 12.5034 3.38643 12.6396 3.60938L13.498 5.0127C13.6629 5.28258 13.75 5.59291 13.75 5.90918C13.75 6.60782 13.361 7.26859 12.75 7.57324V9H11.25V7.57324C10.639 7.26859 10.25 6.60782 10.25 5.90918C10.25 5.59291 10.3371 5.28259 10.502 5.0127L11.3604 3.60938L11.416 3.5293C11.5573 3.35401 11.7715 3.25 12 3.25ZM11.7822 5.79492C11.7612 5.82933 11.75 5.86887 11.75 5.90918C11.75 6.16016 11.922 6.25 12 6.25C12.078 6.25 12.25 6.16016 12.25 5.90918C12.25 5.86887 12.2388 5.82933 12.2178 5.79492L12 5.4375L11.7822 5.79492Z" fill="#84CC16"/>
<path fill-rule="evenodd" clip-rule="evenodd" d="M16 8.25C17.5188 8.25 18.75 9.48122 18.75 11V14.3564C19.9039 14.6832 20.75 15.7415 20.75 17V20C20.75 20.9665 19.9665 21.75 19 21.75H5C4.0335 21.75 3.25 20.9665 3.25 20V17C3.25 15.7415 4.09614 14.6832 5.25 14.3564V11C5.25 9.48122 6.48122 8.25 8 8.25H16ZM6 15.75C5.30964 15.75 4.75 16.3096 4.75 17V20C4.75 20.1381 4.86193 20.25 5 20.25H19C19.1381 20.25 19.25 20.1381 19.25 20V17C19.25 16.3096 18.6904 15.75 18 15.75H6ZM8 9.75C7.30964 9.75 6.75 10.3096 6.75 11V14.25H17.25V11C17.25 10.3096 16.6904 9.75 16 9.75H8Z" fill="black"/>
</svg>
