<svg width="24" height="24" viewBox="0 0 24 24" fill="none" xmlns="http://www.w3.org/2000/svg">
<path fill-rule="evenodd" clip-rule="evenodd" d="M11.7939 4.27983C11.9286 4.24136 12.0714 4.24136 12.2061 4.27983L19.2061 6.27983C19.5279 6.37191 19.75 6.66576 19.75 7.00054V7.2564C19.8926 7.25934 20.0244 7.26278 20.1455 7.27104C20.4626 7.29268 20.7624 7.33926 21.0527 7.45952C21.7263 7.73864 22.2619 8.27417 22.541 8.9478C22.6612 9.23804 22.7079 9.53811 22.7295 9.85503C22.7506 10.1653 22.75 10.5451 22.75 11.0005C22.75 11.456 22.7507 11.8358 22.7295 12.146C22.7078 12.4629 22.6612 12.7631 22.541 13.0533C22.2619 13.7268 21.7263 14.2625 21.0527 14.5416C20.7624 14.6618 20.4625 14.7084 20.1455 14.73C19.967 14.7422 19.7656 14.7456 19.54 14.7476C19.5093 14.8569 19.474 14.964 19.4336 15.0689C19.1874 15.7086 18.8055 16.288 18.3145 16.7662C17.6585 17.4048 16.7606 17.7761 15.3438 18.3833L14.8643 18.5894C13.9241 18.9924 13.3334 19.251 12.709 19.3453C12.2391 19.4162 11.7609 19.4162 11.291 19.3453C10.6666 19.251 10.076 18.9924 9.13574 18.5894L8.65625 18.3833C7.23937 17.7761 6.34149 17.4048 5.68555 16.7662C5.19453 16.288 4.8126 15.7086 4.56641 15.0689C4.52601 14.9639 4.48974 14.857 4.45899 14.7476C4.23381 14.7456 4.03274 14.7422 3.85449 14.73C3.5375 14.7084 3.23757 14.6618 2.94727 14.5416C2.27371 14.2625 1.73813 13.7268 1.45899 13.0533C1.33877 12.7631 1.29216 12.4629 1.27051 12.146C1.24934 11.8358 1.25 11.456 1.25 11.0005C1.25 10.5451 1.24936 10.1653 1.27051 9.85503C1.29214 9.53811 1.33883 9.23804 1.45899 8.9478C1.73807 8.27417 2.27366 7.73864 2.94727 7.45952C3.23761 7.33926 3.53745 7.29268 3.85449 7.27104C3.97565 7.26278 4.10737 7.25934 4.25 7.2564V7.00054C4.25 6.66576 4.47211 6.37191 4.79395 6.27983L11.7939 4.27983ZM5.75 7.56499V11.7017C5.75001 13.3654 5.76213 13.9978 5.9668 14.5298C6.13522 14.9675 6.39652 15.3638 6.73242 15.691C7.14086 16.0886 7.71761 16.349 9.24707 17.0044L9.72754 17.2105C10.7387 17.6438 11.1249 17.803 11.5147 17.8619C11.8362 17.9104 12.1638 17.9104 12.4854 17.8619C12.8751 17.803 13.2613 17.6438 14.2725 17.2105L14.7529 17.0044C16.2824 16.349 16.8591 16.0886 17.2676 15.691C17.6035 15.3638 17.8648 14.9675 18.0332 14.5298C18.2379 13.9978 18.25 13.3654 18.25 11.7017V7.56499L12 5.77983L5.75 7.56499ZM3.95703 8.76812C3.71634 8.78454 3.59864 8.81331 3.52149 8.84526C3.21528 8.97215 2.97157 9.21579 2.84473 9.52202C2.81284 9.59918 2.78398 9.71724 2.76758 9.95757C2.75074 10.2049 2.75 10.5248 2.75 11.0005C2.75 11.4763 2.75072 11.7962 2.76758 12.0435C2.78401 12.2839 2.81279 12.4019 2.84473 12.4791C2.97164 12.7852 3.21533 13.029 3.52149 13.1558C3.59864 13.1877 3.71648 13.2165 3.95703 13.233C4.04832 13.2392 4.1495 13.2401 4.26465 13.2427C4.24858 12.7953 4.25 12.29 4.25 11.7017V8.75737C4.14089 8.75998 4.04444 8.76216 3.95703 8.76812ZM19.75 11.7017C19.75 12.2901 19.7504 12.7953 19.7344 13.2427C19.8499 13.2401 19.9514 13.2392 20.043 13.233C20.2835 13.2165 20.4014 13.1877 20.4785 13.1558C20.7847 13.029 21.0284 12.7852 21.1553 12.4791C21.1872 12.4019 21.216 12.2839 21.2324 12.0435C21.2493 11.7962 21.25 11.4763 21.25 11.0005C21.25 10.5248 21.2493 10.2049 21.2324 9.95757C21.216 9.71724 21.1872 9.59918 21.1553 9.52202C21.0284 9.21579 20.7847 8.97215 20.4785 8.84526C20.4014 8.81331 20.2837 8.78454 20.043 8.76812C19.9556 8.76216 19.8591 8.75998 19.75 8.75737V11.7017Z" fill="black"/>
<path d="M16 12.25C16.4142 12.25 16.75 12.5858 16.75 13C16.75 13.4142 16.4142 13.75 16 13.75H8C7.58579 13.75 7.25 13.4142 7.25 13C7.25 12.5858 7.58579 12.25 8 12.25H16Z" fill="#84CC16"/>
<path d="M16 9.25C16.4142 9.25 16.75 9.58579 16.75 10C16.75 10.4142 16.4142 10.75 16 10.75H8C7.58579 10.75 7.25 10.4142 7.25 10C7.25 9.58579 7.58579 9.25 8 9.25H16Z" fill="#84CC16"/>
</svg>
