<svg width="24" height="24" viewBox="0 0 24 24" fill="none" xmlns="http://www.w3.org/2000/svg">
<path fill-rule="evenodd" clip-rule="evenodd" d="M12 2.25C13.5188 2.25 14.75 3.48122 14.75 5C14.75 6.2584 13.9037 7.31578 12.75 7.64258V9.25H13.5C14.841 9.25 15.6778 9.24145 16.3789 9.4541C17.897 9.91461 19.0854 11.103 19.5459 12.6211C19.7586 13.3222 19.75 14.159 19.75 15.5C19.75 16.841 19.7586 17.6778 19.5459 18.3789C19.0854 19.897 17.897 21.0854 16.3789 21.5459C15.6778 21.7586 14.841 21.75 13.5 21.75H10.5C9.15905 21.75 8.32217 21.7586 7.62109 21.5459C6.10299 21.0854 4.91461 19.897 4.4541 18.3789C4.24145 17.6778 4.25 16.841 4.25 15.5C4.25 14.159 4.24145 13.3222 4.4541 12.6211C4.91461 11.103 6.10299 9.91461 7.62109 9.4541C8.32217 9.24145 9.15905 9.25 10.5 9.25H11.25V7.64258C10.0963 7.31578 9.25 6.2584 9.25 5C9.25 3.48122 10.4812 2.25 12 2.25ZM10.5 10.75C9.05003 10.75 8.49112 10.7579 8.05664 10.8896C7.01794 11.2047 6.20474 12.0179 5.88965 13.0566C5.75789 13.4911 5.75 14.05 5.75 15.5C5.75 16.95 5.75789 17.5089 5.88965 17.9434C6.20474 18.9821 7.01794 19.7953 8.05664 20.1104C8.49112 20.2421 9.05003 20.25 10.5 20.25H13.5C14.95 20.25 15.5089 20.2421 15.9434 20.1104C16.9821 19.7953 17.7953 18.9821 18.1104 17.9434C18.2421 17.5089 18.25 16.95 18.25 15.5C18.25 14.05 18.2421 13.4911 18.1104 13.0566C17.7953 12.0179 16.9821 11.2047 15.9434 10.8896C15.5089 10.7579 14.95 10.75 13.5 10.75H10.5ZM12 3.75C11.3096 3.75 10.75 4.30964 10.75 5C10.75 5.69036 11.3096 6.25 12 6.25C12.6904 6.25 13.25 5.69036 13.25 5C13.25 4.30964 12.6904 3.75 12 3.75Z" fill="black"/>
<path d="M2 12.25C2.41421 12.25 2.75 12.5858 2.75 13V18C2.75 18.4142 2.41421 18.75 2 18.75C1.58579 18.75 1.25 18.4142 1.25 18V13C1.25 12.5858 1.58579 12.25 2 12.25Z" fill="black"/>
<path d="M22 12.25C22.4142 12.25 22.75 12.5858 22.75 13V18C22.75 18.4142 22.4142 18.75 22 18.75C21.5858 18.75 21.25 18.4142 21.25 18V13C21.25 12.5858 21.5858 12.25 22 12.25Z" fill="black"/>
<path d="M9 14.5C9.55228 14.5 10 14.9477 10 15.5C10 16.0523 9.55228 16.5 9 16.5C8.44772 16.5 8 16.0523 8 15.5C8 14.9477 8.44772 14.5 9 14.5Z" fill="#84CC16"/>
<path d="M15 14.5C15.5523 14.5 16 14.9477 16 15.5C16 16.0523 15.5523 16.5 15 16.5C14.4477 16.5 14 16.0523 14 15.5C14 14.9477 14.4477 14.5 15 14.5Z" fill="#84CC16"/>
</svg>
