<svg width="24" height="24" viewBox="0 0 24 24" fill="none" xmlns="http://www.w3.org/2000/svg">
<path fill-rule="evenodd" clip-rule="evenodd" d="M17.7998 5.25C18.3475 5.25 18.8037 5.24898 19.1748 5.2793C19.5545 5.31033 19.9109 5.3781 20.248 5.54981C20.7655 5.81346 21.1865 6.23451 21.4502 6.75196C21.6219 7.0891 21.6897 7.44547 21.7207 7.8252C21.7468 8.14466 21.7477 8.52703 21.748 8.97657C21.7483 8.98436 21.75 8.99215 21.75 9V15C21.75 15.0075 21.7483 15.015 21.748 15.0225C21.7477 15.4724 21.7468 15.8551 21.7207 16.1748C21.6897 16.5545 21.6219 16.9109 21.4502 17.2481C21.1865 17.7655 20.7655 18.1865 20.248 18.4502C19.9109 18.6219 19.5545 18.6897 19.1748 18.7207C18.8037 18.751 18.3475 18.75 17.7998 18.75H6.2002C5.65252 18.75 5.19632 18.751 4.8252 18.7207C4.44546 18.6897 4.0891 18.6219 3.75195 18.4502C3.23451 18.1865 2.81346 17.7655 2.5498 17.2481C2.37809 16.9109 2.31033 16.5545 2.2793 16.1748C2.25318 15.8551 2.25233 15.4724 2.25195 15.0225C2.25173 15.015 2.25 15.0075 2.25 15V9C2.25 8.99215 2.25171 8.98436 2.25195 8.97657C2.25234 8.52703 2.2532 8.14466 2.2793 7.8252C2.31033 7.44547 2.37809 7.0891 2.5498 6.75196C2.81346 6.23451 3.23451 5.81346 3.75195 5.54981C4.08909 5.3781 4.44546 5.31033 4.8252 5.2793C5.19632 5.24898 5.65252 5.25 6.2002 5.25H17.7998ZM6.2002 6.75C5.62777 6.75 5.24314 6.75024 4.94727 6.77442C4.66027 6.79788 4.52316 6.84059 4.43262 6.88672C4.1975 7.00655 4.00655 7.19751 3.88672 7.43262C3.84059 7.52316 3.79788 7.66027 3.77441 7.94727C3.76679 8.04056 3.76244 8.14286 3.75879 8.25684C3.89798 8.25986 4.02688 8.26242 4.14551 8.27051C4.46256 8.29215 4.76238 8.33872 5.05273 8.45899C5.72642 8.73809 6.26191 9.27359 6.54102 9.94727C6.66128 10.2376 6.70785 10.5374 6.72949 10.8545C6.75067 11.1649 6.75 11.5443 6.75 12C6.75 12.4557 6.75067 12.8351 6.72949 13.1455C6.70785 13.4626 6.66128 13.7624 6.54102 14.0527C6.26191 14.7264 5.72642 15.2619 5.05273 15.541C4.76238 15.6613 4.46256 15.7079 4.14551 15.7295C4.02688 15.7376 3.89797 15.7392 3.75879 15.7422C3.76244 15.8566 3.76677 15.9592 3.77441 16.0527C3.79788 16.3397 3.84059 16.4768 3.88672 16.5674C4.00655 16.8025 4.1975 16.9935 4.43262 17.1133C4.52316 17.1594 4.66027 17.2021 4.94727 17.2256C5.24314 17.2498 5.62777 17.25 6.2002 17.25H17.7998C18.3722 17.25 18.7569 17.2498 19.0527 17.2256C19.3397 17.2021 19.4768 17.1594 19.5674 17.1133C19.8025 16.9935 19.9935 16.8025 20.1133 16.5674C20.1594 16.4768 20.2021 16.3397 20.2256 16.0527C20.2332 15.9592 20.2366 15.8566 20.2402 15.7422C20.1014 15.7392 19.9728 15.7376 19.8545 15.7295C19.5374 15.7079 19.2376 15.6613 18.9473 15.541C18.2736 15.2619 17.7381 14.7264 17.459 14.0527C17.3387 13.7624 17.2921 13.4626 17.2705 13.1455C17.2493 12.8351 17.25 12.4557 17.25 12C17.25 11.5443 17.2493 11.1649 17.2705 10.8545C17.2921 10.5374 17.3387 10.2376 17.459 9.94727C17.7381 9.27359 18.2736 8.73809 18.9473 8.45899C19.2376 8.33872 19.5374 8.29215 19.8545 8.27051C19.9728 8.26244 20.1014 8.25986 20.2402 8.25684C20.2366 8.14287 20.2332 8.04055 20.2256 7.94727C20.2021 7.66027 20.1594 7.52316 20.1133 7.43262C19.9935 7.19751 19.8025 7.00655 19.5674 6.88672C19.4768 6.84059 19.3397 6.79788 19.0527 6.77442C18.7569 6.75024 18.3722 6.75 17.7998 6.75H6.2002ZM3.75 14.2422C3.85912 14.2396 3.95557 14.2384 4.04297 14.2324C4.28368 14.216 4.40136 14.1872 4.47852 14.1553C4.7848 14.0284 5.02841 13.7848 5.15527 13.4785C5.18723 13.4014 5.216 13.2837 5.23242 13.043C5.24929 12.7955 5.25 12.476 5.25 12C5.25 11.524 5.24929 11.2045 5.23242 10.957C5.216 10.7163 5.18723 10.5986 5.15527 10.5215C5.02841 10.2152 4.7848 9.9716 4.47852 9.84473C4.40136 9.81278 4.28368 9.78401 4.04297 9.76758C3.95556 9.76162 3.85913 9.7594 3.75 9.75684V14.2422ZM19.957 9.76758C19.7163 9.78401 19.5986 9.81278 19.5215 9.84473C19.2152 9.9716 18.9716 10.2152 18.8447 10.5215C18.8128 10.5986 18.784 10.7163 18.7676 10.957C18.7507 11.2045 18.75 11.524 18.75 12C18.75 12.476 18.7507 12.7955 18.7676 13.043C18.784 13.2837 18.8128 13.4014 18.8447 13.4785C18.9716 13.7848 19.2152 14.0284 19.5215 14.1553C19.5986 14.1872 19.7163 14.216 19.957 14.2324C20.0444 14.2384 20.1409 14.2396 20.25 14.2422V9.75684C20.1409 9.7594 20.0444 9.76162 19.957 9.76758Z" fill="black"/>
<path fill-rule="evenodd" clip-rule="evenodd" d="M12.75 9.35645C13.9039 9.68316 14.75 10.7415 14.75 12C14.75 13.2584 13.9037 14.3158 12.75 14.6426V18H11.25V14.6426C10.0963 14.3158 9.25 13.2584 9.25 12C9.25 10.7415 10.0961 9.68316 11.25 9.35645V6H12.75V9.35645ZM12 10.75C11.3096 10.75 10.75 11.3096 10.75 12C10.75 12.6904 11.3096 13.25 12 13.25C12.6904 13.25 13.25 12.6904 13.25 12C13.25 11.3096 12.6904 10.75 12 10.75Z" fill="#84CC16"/>
</svg>
